<svg width="12" height="12" viewBox="0 0 12 12" fill="none" xmlns="http://www.w3.org/2000/svg">
<path fill-rule="evenodd" clip-rule="evenodd" d="M6.00033 0.166992C6.24815 0.166992 6.44904 0.36789 6.44904 0.61571V5.55161H11.3849C11.6328 5.55161 11.8337 5.7525 11.8337 6.00033C11.8337 6.24815 11.6328 6.44904 11.3849 6.44904H6.44904V11.3849C6.44904 11.6328 6.24815 11.8337 6.00033 11.8337C5.75251 11.8337 5.55161 11.6328 5.55161 11.3849V6.44904H0.61571C0.36789 6.44904 0.166992 6.24815 0.166992 6.00033C0.166992 5.75251 0.36789 5.55161 0.61571 5.55161H5.55161V0.61571C5.55161 0.36789 5.75251 0.166992 6.00033 0.166992Z" fill="white"/>
</svg>
