<svg width="40" height="40" viewBox="0 0 40 40" fill="none" xmlns="http://www.w3.org/2000/svg">
<mask id="mask0_3161_122562" style="mask-type:alpha" maskUnits="userSpaceOnUse" x="0" y="0" width="40" height="40">
<path d="M40 20C40 31.0457 31.0457 40 20 40C8.95431 40 0 31.0457 0 20C0 8.95431 8.95431 0 20 0C31.0457 0 40 8.95431 40 20Z" fill="#F0F0F0"/>
</mask>
<g mask="url(#mask0_3161_122562)">
<path d="M35.1026 31.9772C35.0817 31.9981 32.9957 34.0875 32.9706 34.1028C33.5526 35.0968 33.8864 36.2537 33.8864 37.4879V41.0195C33.8864 41.4171 33.5643 41.7391 33.1667 41.7391H6.89986C6.50226 41.7391 6.18022 41.4171 6.18022 41.0195V37.4879C6.18022 36.2537 6.51396 35.0968 7.09597 34.1028C7.07177 34.0881 7.24241 34.2556 4.96403 31.9772C4.11846 31.1316 4.04019 29.7877 4.78052 28.8495C5.68349 27.6942 5.42118 26.361 4.60871 25.5949C3.71726 24.7538 3.61831 23.3703 4.38112 22.4114L5.41741 21.1088C5.89507 20.5079 6.05069 19.7109 5.833 18.9742L5.16373 16.7046C4.821 15.5451 5.41201 14.3136 6.53105 13.8558L7.41531 13.4933C8.30046 13.1307 8.87887 12.269 8.87887 11.3118V8.9955C8.87887 4.02729 12.9062 0 17.8744 0H22.1922C27.1602 0 31.1877 4.02621 31.1877 8.9955V11.3118C31.1877 12.269 31.7661 13.1307 32.6513 13.4933L33.5355 13.8558C34.6546 14.3136 35.2456 15.5451 34.9029 16.7046L34.2336 18.9742C34.0159 19.7109 34.1715 20.5079 34.6492 21.1088L35.6855 22.4114C36.4489 23.3727 36.349 24.7529 35.4579 25.5949C34.5682 26.4333 34.4675 27.8123 35.2249 28.7712C36.0854 29.8722 35.9025 31.1772 35.1026 31.9772Z" fill="#FFDFBA"/>
<path d="M4.96417 31.9772C4.98504 31.9981 7.07101 34.0875 7.0961 34.1028C6.51409 35.0968 6.18036 36.2537 6.18036 37.4879V41.0195C6.18036 41.4171 6.5024 41.7391 6.9 41.7391H33.1669C33.5645 41.7391 33.8865 41.4171 33.8865 41.0195V37.4879C33.8865 36.2537 33.5528 35.0968 32.9708 34.1028C32.995 34.0881 32.8243 34.2556 35.1027 31.9772C35.9483 31.1316 36.0265 29.7877 35.2862 28.8495C34.3832 27.6942 34.6455 26.361 35.458 25.5949C36.3495 24.7538 36.4484 23.3703 35.6856 22.4114L34.6493 21.1088C34.1717 20.5079 34.016 19.7109 34.2337 18.9742L34.903 16.7046C35.2457 15.5451 34.6547 14.3136 33.5357 13.8558L32.6514 13.4933C31.7663 13.1307 31.1879 12.269 31.1879 11.3118V8.9955C31.1879 4.02729 27.1606 0 22.1924 0H17.8745C12.9066 0 8.87901 4.02621 8.87901 8.9955V11.3118C8.87901 12.269 8.3006 13.1307 7.41544 13.4933L6.53119 13.8558C5.41215 14.3136 4.82114 15.5451 5.16387 16.7046L5.83313 18.9742C6.05083 19.7109 5.8952 20.5079 5.41754 21.1088L4.38126 22.4114C3.61781 23.3727 3.71775 24.7529 4.60885 25.5949C5.4985 26.4333 5.59925 27.8123 4.84183 28.7712C3.98132 29.8722 4.1642 31.1772 4.96417 31.9772Z" fill="#FFDFBA"/>
<path d="M11.7658 16.0872C11.402 16.1288 11.1278 16.4359 11.1278 16.802V18.1827C11.1278 21.8942 13.3991 25.0769 16.6285 26.4136L16.615 26.4468V27.0612C16.615 29.1069 14.966 30.756 12.9313 30.7799C10.4061 30.7799 8.26133 32.1126 7.09597 34.1028C7.07087 34.0875 4.9849 31.9981 4.96403 31.9772C4.11846 31.1316 4.04019 29.7877 4.78052 28.8495C5.68349 27.6942 5.42118 26.361 4.60871 25.5949C3.71726 24.7538 3.61831 23.3703 4.38112 22.4114L5.41741 21.1088C5.89507 20.5079 6.05069 19.7109 5.833 18.9742L5.16373 16.7046C4.821 15.5451 5.41201 14.3136 6.53105 13.8558L7.41531 13.4933C8.30047 13.1307 8.87888 12.269 8.87888 11.3118V8.9955C8.87888 4.02747 12.9063 0 17.8744 0H22.1922C27.1602 0 31.1877 4.0263 31.1877 8.9955V11.3118C31.1877 12.269 31.7661 13.1307 32.6513 13.4933L33.5356 13.8558C34.6546 14.3136 35.2456 15.5451 34.9029 16.7046L34.2336 18.9742C34.0159 19.7109 34.1715 20.5079 34.6492 21.1088L35.6855 22.4114C36.4488 23.3726 36.3492 24.7528 35.4579 25.5949C34.6271 26.3778 34.398 27.7133 35.2861 28.8495C36.0264 29.7877 35.9481 31.1316 35.1026 31.9772C35.0817 31.9981 32.9957 34.0875 32.9706 34.1028C31.8149 32.1291 29.6789 30.7799 27.1353 30.7799C25.1015 30.756 23.4516 29.1079 23.4516 27.0612V26.4468L23.4381 26.4126C26.6675 25.0759 28.9388 21.8951 28.9388 18.1826V13.7467C28.9388 13.4442 28.7505 13.1737 28.466 13.0708C26.9008 12.5048 25.5793 11.4142 24.7297 9.95712C24.4815 9.53154 23.8855 9.4818 23.5637 9.85484C20.5521 13.3455 16.372 15.5612 11.7658 16.0872Z" fill="#FE4F60"/>
<path d="M28.4685 13.0712C28.7529 13.174 28.9413 13.4445 28.9413 13.747V18.183C28.9413 21.8954 26.6699 25.0762 23.4405 26.413C17.5991 28.8376 11.1302 24.5301 11.1302 18.1829V16.8022C11.1302 16.436 11.4045 16.1289 11.7682 16.0874C16.3666 15.5623 20.5494 13.3518 23.5661 9.85521C23.888 9.48216 24.4839 9.53182 24.7321 9.95749C25.5809 11.4133 26.9015 12.5046 28.4685 13.0712Z" fill="#FFEBD2"/>
<path d="M33.8869 37.4876V41.0192C33.8869 41.4168 33.5649 41.7389 33.1673 41.7389H6.90043C6.50283 41.7389 6.18079 41.4168 6.18079 41.0192V37.4876C6.18079 33.7859 9.18151 30.7797 12.8887 30.7797C13.4086 30.7797 13.9344 30.6732 14.4342 30.4459L14.4566 30.4945L19.5931 34.4714C19.853 34.672 20.2147 34.672 20.4746 34.4714L25.6111 30.4945L25.6336 30.4459C26.0923 30.6546 26.6006 30.7734 27.1358 30.7797C30.9875 30.7797 33.8869 33.8692 33.8869 37.4876Z" fill="#42434D"/>
<path d="M25.3523 0.571394C26.502 1.00246 26.1725 2.70603 24.9447 2.69883C24.9 2.69856 20.6177 2.69865 20.573 2.69865C15.605 2.69865 11.5775 6.72612 11.5775 11.6942V14.0105C11.5775 14.9676 10.9991 15.8294 10.114 16.1919L9.2297 16.5544C8.11066 17.0123 7.51965 18.2438 7.86238 19.4033L8.53165 21.6729C8.74934 22.4096 8.59372 23.2066 8.11606 23.8075L7.07977 25.11C6.31696 26.069 6.41591 27.4525 7.30736 28.2936C8.19549 29.1311 8.29858 30.509 7.54034 31.4699C6.90526 32.2824 6.83609 33.1686 7.15884 33.9282C7.19546 34.0145 7.08535 34.0939 7.01627 34.026C6.6309 33.647 4.98256 31.9957 4.96403 31.9773C4.17989 31.1932 3.96688 29.8905 4.84169 28.7713C5.60073 27.8095 5.49603 26.4317 4.60871 25.595C3.71726 24.7539 3.61831 23.3704 4.38112 22.4115L5.41741 21.1089C5.89507 20.508 6.05069 19.711 5.833 18.9743L5.16373 16.7046C4.821 15.5451 5.41201 14.3136 6.53105 13.8558L7.41531 13.4933C8.30046 13.1307 8.87888 12.269 8.87888 11.3118V8.9955C8.87888 4.02747 12.9063 0 17.8744 0H22.1922C23.295 0 24.3618 0.19997 25.3523 0.571394Z" fill="#FF6D7A"/>
<path d="M18.0091 23.9392C19.4658 24.8615 18.3274 27.0938 16.7268 26.4528C13.4395 25.1362 11.1302 21.9244 11.1302 18.1829V16.802C11.1302 16.4359 11.4046 16.1292 11.768 16.0878C12.1022 16.0493 12.4624 15.9988 12.8445 15.9322C13.3509 15.8438 13.8267 16.208 13.8684 16.7204C14.1396 20.0523 15.7789 22.5271 18.0091 23.9392Z" fill="#FFF3E4"/>
<path d="M15.6076 31.386C16.0668 31.7415 15.8238 32.4865 15.2429 32.4888C11.4166 32.5041 8.51962 35.5759 8.51962 39.1967V41.7389H6.90043C6.50301 41.7389 6.18079 41.4167 6.18079 41.0192V37.4876C6.18079 33.848 9.10082 30.7797 12.9319 30.7797C13.4671 30.7734 13.9754 30.6546 14.4342 30.4459L14.4567 30.4945L15.6076 31.386Z" fill="#4D4E59"/>
<path d="M24.4606 31.386C24.0014 31.7415 24.2445 32.4865 24.8253 32.4888C28.6516 32.5041 31.5486 35.5759 31.5486 39.1967V41.7389H33.1678C33.5652 41.7389 33.8875 41.4167 33.8875 41.0192V37.4876C33.8875 33.848 30.9674 30.7797 27.1363 30.7797C26.6011 30.7734 26.0929 30.6546 25.6341 30.4459L25.6116 30.4945L24.4606 31.386Z" fill="#2C2C33"/>
<path d="M19.5925 34.4712C19.8518 34.672 20.2141 34.672 20.4736 34.4712L25.6102 30.4945L25.6327 30.4459C26.0914 30.6546 26.5997 30.7734 27.1349 30.7797L23.991 41.7389H16.075L12.931 30.7797C13.4663 30.7734 13.9745 30.6546 14.4333 30.4459L14.4558 30.4945L19.5925 34.4712Z" fill="#D6F4FC"/>
<path d="M20.7518 34.2559V40.2999C20.7518 40.6975 20.4297 41.0196 20.0321 41.0196C19.6345 41.0196 19.3125 40.6975 19.3125 40.2999V34.2559L19.5914 34.4718C19.8513 34.6724 20.2129 34.6724 20.4729 34.4718L20.7518 34.2559Z" fill="#BDEFFC"/>
<path d="M14.4211 32.5374C14.1526 32.5673 13.8489 32.6195 13.487 32.7164L12.931 30.7797C13.4663 30.7734 13.9745 30.6546 14.4333 30.4459L14.4558 30.4945L14.8974 30.8365C15.5739 31.3605 15.2716 32.4425 14.4211 32.5374Z" fill="#E8F8FC"/>
<path d="M25.6485 32.5374C25.917 32.5673 26.2207 32.6195 26.5827 32.7164L27.1386 30.7797C26.6034 30.7734 26.0951 30.6546 25.6363 30.4459L25.6139 30.4945L25.1723 30.8365C24.4957 31.3605 24.7981 32.4425 25.6485 32.5374Z" fill="#BDEFFC"/>
<path d="M23.5511 27.9238C21.3348 28.8515 18.8993 28.9235 16.5112 27.9238C16.6331 27.4177 16.6128 27.0899 16.6128 26.4467L16.6263 26.4135C18.7926 27.3126 21.2654 27.3144 23.4359 26.4135L23.4494 26.4467C23.4494 27.0902 23.4291 27.4179 23.5511 27.9238Z" fill="#FFD6A6"/>
</g>
</svg>
