<svg width="40" height="40" viewBox="0 0 40 40" fill="none" xmlns="http://www.w3.org/2000/svg">
<mask id="mask0_3161_122546" style="mask-type:alpha" maskUnits="userSpaceOnUse" x="0" y="0" width="40" height="40">
<path d="M40 20C40 31.0457 31.0457 40 20 40C8.95431 40 0 31.0457 0 20C0 8.95431 8.95431 0 20 0C31.0457 0 40 8.95431 40 20Z" fill="#F0F0F0"/>
</mask>
<g mask="url(#mask0_3161_122546)">
<path d="M31.3736 17.0035V34.0023C33.1082 35.2978 34.2313 37.3668 34.2313 39.6978V43.4376C34.2313 43.8587 33.8903 44.1997 33.4693 44.1997H5.65396C5.23292 44.1997 4.8919 43.8587 4.8919 43.4376V39.6978C4.8919 37.3668 6.01499 35.2978 7.74964 34.0023V17.0035C0.792286 14.3843 0.920884 10.0552 7.95825 7.49585C8.86892 3.21305 12.6735 0 17.2278 0H21.8954C26.4497 0 30.2543 3.21305 31.165 7.49585C38.209 10.0577 38.3244 14.3868 31.3736 17.0035Z" fill="#FFDFBA"/>
<path d="M11.9975 32.5947C12.5567 32.5947 13.0902 32.4785 13.5722 32.2689V32.2699C14.6152 34.6427 16.9729 36.1812 19.5639 36.1812C22.1549 36.1812 24.5125 34.6427 25.5556 32.2699V32.2689C26.0376 32.4785 26.5711 32.5947 27.1302 32.5947C31.058 32.5947 34.2336 35.7801 34.2336 39.6981V43.4379C34.2336 43.8588 33.8924 44.2 33.4715 44.2H5.65623C5.23538 44.2 4.89417 43.8588 4.89417 43.4379V39.6981C4.89417 35.7789 8.07102 32.5947 11.9975 32.5947Z" fill="#FFA4B8"/>
<path d="M31.376 17.0038C31.376 8.72511 31.4372 8.75293 31.1674 7.49609C38.2114 10.0579 38.3268 14.3871 31.376 17.0038Z" fill="#FAA157"/>
<path d="M7.95825 7.49609C7.69858 8.70625 7.74964 8.61423 7.74964 17.0038C0.804479 14.3891 0.908405 10.0601 7.95825 7.49609Z" fill="#FAA157"/>
<path d="M21.8936 0C26.4479 0 30.2525 3.21305 31.1632 7.49585C24.648 5.12221 14.4769 5.1203 7.95642 7.49585C8.86709 3.21305 12.6717 0 17.226 0H21.8936Z" fill="#FFAA64"/>
<path d="M28.9937 19.2544V14.6929C28.9937 14.2877 28.677 13.9552 28.2724 13.9322C26.7323 13.8444 25.4433 12.8831 24.9701 11.1389C24.8344 10.6386 24.2424 10.4241 23.8125 10.7137C20.0351 13.2584 15.5339 14.4147 10.96 14C10.5152 13.9597 10.1326 14.3126 10.1326 14.7593V19.2545C10.1326 23.1858 12.5379 26.5551 15.9577 27.9706L15.9434 28.0058V28.6564C15.9434 30.8341 14.1757 32.5943 11.9968 32.5943C10.4051 32.5943 8.93619 33.1183 7.75118 34.0023C7.75118 6.70524 7.68679 8.76786 7.9598 7.49579C14.475 5.12215 24.646 5.12024 31.1665 7.49579C31.4352 8.74757 31.3751 6.71639 31.3751 34.0023C30.1901 33.1183 28.7213 32.5943 27.1295 32.5943C24.9508 32.5943 23.183 30.8341 23.183 28.6564V28.0058L23.1687 27.9705C26.5884 26.555 28.9937 23.1857 28.9937 19.2544Z" fill="#42434D"/>
<path d="M28.2738 13.9322C28.6783 13.9552 28.9951 14.2877 28.9951 14.6929V19.2544C28.9951 23.1857 26.5898 26.555 23.1701 27.9705C17.0006 30.5315 10.1339 25.9906 10.1339 19.2544V14.7592C10.1339 14.3126 10.5165 13.9596 10.9613 13.9999C15.5325 14.4144 20.0339 13.2601 23.8138 10.7136C24.2437 10.424 24.8356 10.6386 24.9714 11.1389C25.4435 12.8788 26.7302 13.8443 28.2738 13.9322Z" fill="#FFEBD2"/>
<path d="M13.9672 33.0289C14.4917 33.8932 14.016 35.0204 13.0385 35.2784C10.704 35.8944 7.65664 37.5366 7.65664 42.0795V44.2H5.65623C5.23538 44.2 4.89417 43.8588 4.89417 43.4379V39.6981C4.89417 35.7916 8.04815 32.5528 11.9537 32.5947C12.5291 32.6004 13.0778 32.4842 13.5722 32.2689V32.2699C13.6882 32.5335 13.8203 32.7868 13.9672 33.0289Z" fill="#FFB1BF"/>
<path d="M25.1612 33.0289C24.6367 33.8932 25.1124 35.0204 26.0898 35.2784C28.4244 35.8944 31.4717 37.5366 31.4717 42.0795V44.2H33.4721C33.893 44.2 34.2342 43.8588 34.2342 43.4379V39.6981C34.2342 35.7916 31.0802 32.5528 27.1746 32.5947C26.5993 32.6004 26.0506 32.4842 25.5562 32.2689V32.2699C25.4403 32.5335 25.308 32.7868 25.1612 33.0289Z" fill="#FF99AF"/>
<path d="M29.7967 10.3129C23.2046 8.3553 16.1457 8.22098 9.31556 10.0767C8.50558 10.2967 7.72227 9.64938 7.77666 8.81168C7.80324 8.40264 7.85649 7.98541 7.96156 7.49579C14.4768 5.12215 24.6479 5.12024 31.1683 7.49579C31.2955 8.08829 31.3473 8.57591 31.3675 9.09555C31.4 9.93096 30.5982 10.5509 29.7967 10.3129Z" fill="#2C2C33"/>
<path d="M23.2876 29.5702C20.9407 30.5526 18.3616 30.6288 15.8327 29.5702C15.9619 29.0343 15.9403 28.6872 15.9403 28.0061L15.9546 27.9708C18.2486 28.923 20.8672 28.9249 23.1657 27.9708L23.1799 28.0061C23.1799 28.6874 23.1585 29.0345 23.2876 29.5702Z" fill="#FFD6A6"/>
<path d="M17.7565 25.5719C19.1796 26.5245 18.095 28.7278 16.4791 28.1607C12.9274 26.9143 10.1339 23.5996 10.1339 19.2545V14.7593C10.1339 14.3125 10.5168 13.96 10.9617 14C11.3267 14.0332 11.7276 14.0593 12.1601 14.0725C12.9431 14.0964 13.5632 14.7429 13.5632 15.5262V17.7304C13.5632 21.0478 15.2547 23.8972 17.7565 25.5719Z" fill="#FFF3E4"/>
<path d="M25.2425 0.608698C26.4536 1.06622 26.1025 2.86536 24.8078 2.85793C24.7617 2.85764 20.1297 2.85774 20.0837 2.85774C17.1631 2.85774 14.5511 4.17896 12.8117 6.25654C11.0094 6.55946 9.3691 6.98145 7.95642 7.49585C8.86709 3.21305 12.6717 0 17.226 0H21.8936C23.0726 0 24.2012 0.215283 25.2425 0.608698Z" fill="#FFBD7B"/>
</g>
</svg>
