<svg width="40" height="40" viewBox="0 0 40 40" fill="none" xmlns="http://www.w3.org/2000/svg">
<mask id="mask0_3161_122579" style="mask-type:alpha" maskUnits="userSpaceOnUse" x="0" y="0" width="40" height="40">
<path d="M40 20C40 31.0457 31.0457 40 20 40C8.95431 40 0 31.0457 0 20C0 8.95431 8.95431 0 20 0C31.0457 0 40 8.95431 40 20Z" fill="#F0F0F0"/>
</mask>
<g mask="url(#mask0_3161_122579)">
<path d="M34.1263 37.947V41.5214C34.1263 41.9239 33.8003 42.2498 33.3979 42.2498H6.81289C6.41047 42.2498 6.08453 41.9239 6.08453 41.5214V37.947C6.08453 34.1969 9.12451 31.1587 12.8755 31.1578C14.2012 31.1569 15.3683 30.475 16.0403 29.4407C16.7153 28.4034 16.6457 27.5013 16.6457 26.7722L16.6594 26.7385C13.3909 25.3856 11.092 22.1654 11.092 18.4079V18.123C9.79414 18.123 8.81587 17.0974 8.81587 15.8887V12.1049C8.78674 10.7875 8.84683 6.14151 12.2027 2.9067C16.1049 -0.854355 22.2886 -0.546624 26.768 1.46546C26.9137 1.53101 26.9092 1.73951 26.7617 1.80051L25.5936 2.28122C25.4188 2.35315 25.4561 2.6108 25.6436 2.63083L26.2108 2.69183C29.2627 3.01777 31.8019 4.83957 33.0683 6.99824C33.0802 7.01918 33.0765 7.04649 33.0592 7.0647C32.0504 8.09351 31.486 9.4783 31.486 10.9204V15.7567C31.486 17.0614 30.4289 18.123 29.1188 18.123V18.4079C29.1188 22.1654 26.8199 25.3856 23.5514 26.7385L23.5651 26.7722C23.5651 27.4806 23.4899 28.3947 24.1705 29.4407C24.8424 30.475 26.0096 31.1569 27.3352 31.1578C31.0863 31.1587 34.1263 34.1969 34.1263 37.947Z" fill="#FFD6A6"/>
<path d="M33.069 6.9981C33.0811 7.01876 33.0775 7.04644 33.0598 7.06447C32.0517 8.09364 31.487 9.47861 31.487 10.9204V15.7567C31.487 17.0613 30.4303 18.1229 29.1199 18.1229C29.1199 15.3678 29.1214 13.928 29.1209 13.1542C29.1205 12.6655 28.6484 12.3144 28.1815 12.458C26.7136 12.9096 25.0014 13.1423 23.202 12.7513C20.0355 12.063 19.1387 10.8221 16.5558 10.202C13.6697 9.51011 11.0521 11.7207 11.0704 14.5485C11.0758 15.4781 11.0913 16.6398 11.0931 18.1229C9.79528 18.1229 8.817 17.0973 8.817 15.8887V12.1049C8.78787 10.7875 8.84796 6.14146 12.2039 2.90665C16.1057 -0.854498 22.2901 -0.546585 26.7687 1.46568C26.9144 1.53114 26.9106 1.73973 26.7628 1.80054L25.5946 2.28144C25.42 2.35337 25.4568 2.61075 25.6445 2.63087L26.2119 2.69178C29.264 3.01808 31.803 4.83925 33.069 6.9981Z" fill="#42434D"/>
<path d="M28.1806 12.4581C28.6475 12.3144 29.1196 12.6652 29.12 13.1538C29.1206 13.9545 29.119 15.4672 29.119 18.408C29.119 22.1654 26.8201 25.3856 23.5516 26.7385C17.6412 29.1919 11.0921 24.8335 11.0921 18.408C11.0921 16.7463 11.0754 15.5657 11.0694 14.5486C11.0512 11.7207 13.6687 9.51017 16.5548 10.2021C19.1377 10.8221 20.0345 12.0631 23.2011 12.7514C25.0006 13.1423 26.7127 12.9097 28.1806 12.4581Z" fill="#FFDFBA"/>
<path d="M34.1269 37.9467V41.5211C34.1269 41.9234 33.8008 42.2495 33.3986 42.2495H6.81356C6.41133 42.2495 6.08521 41.9234 6.08521 41.5211V37.9467C6.08521 34.1966 9.12564 31.1589 12.8758 31.1575C14.2017 31.1571 15.3692 30.4743 16.0409 29.4404C18.3857 31.4436 21.8251 31.4448 24.1712 29.4404C24.8428 30.4743 26.0104 31.1571 27.3364 31.1575C31.0865 31.1589 34.1269 34.1966 34.1269 37.9467Z" fill="#42434D"/>
<path d="M27.4773 40.7018H25.2923C24.89 40.7018 24.5639 40.3757 24.5639 39.9735C24.5639 39.5712 24.89 39.2451 25.2923 39.2451H27.4773C27.8796 39.2451 28.2057 39.5712 28.2057 39.9735C28.2057 40.3757 27.8797 40.7018 27.4773 40.7018Z" fill="white"/>
<path d="M16.5446 33.3569C16.2079 33.4628 15.8468 33.5211 15.4597 33.5245C11.6999 33.5576 8.63445 36.5305 8.63445 40.2905V40.9749C8.63445 41.6788 8.06379 42.2495 7.35983 42.2495H6.81356C6.41133 42.2495 6.08521 41.9234 6.08521 41.5211V37.9467C6.08521 34.1966 9.12564 31.1589 12.8758 31.1575C14.2017 31.1571 15.3692 30.4743 16.0409 29.4404C16.3117 29.6717 16.6016 29.8795 16.9069 30.0615C18.2501 30.8619 18.0361 32.8879 16.5446 33.3569Z" fill="#4D4E59"/>
<path d="M23.665 33.3569C24.0017 33.4628 24.3628 33.5211 24.7499 33.5245C28.5097 33.5576 31.5751 36.5305 31.5751 40.2905V40.9749C31.5751 41.6788 32.1458 42.2495 32.8498 42.2495H33.396C33.7983 42.2495 34.1244 41.9234 34.1244 41.5211V37.9467C34.1244 34.1966 31.084 31.1589 27.3338 31.1575C26.0079 31.1571 24.8404 30.4743 24.1687 29.4404C23.8979 29.6717 23.608 29.8795 23.3027 30.0615C21.9596 30.8619 22.1735 32.8879 23.665 33.3569Z" fill="#2C2C33"/>
<path d="M23.6696 28.2672C21.4265 29.2061 18.9615 29.2789 16.5444 28.2672C16.6679 27.7549 16.6473 27.4232 16.6473 26.7722L16.661 26.7385C18.8535 27.6486 21.3562 27.6504 23.553 26.7385L23.5667 26.7722C23.5667 27.4235 23.5461 27.7551 23.6696 28.2672Z" fill="#F7C388"/>
<path d="M26.7628 1.80051C25.9044 2.15349 25.7144 2.27785 25.3202 2.21294C18.0961 1.02371 12.4076 4.80097 11.6294 12.1822C11.6157 12.3118 11.5825 12.439 11.525 12.5559C10.971 13.6837 11.0695 14.5184 11.0813 15.9061C11.0936 17.366 8.89357 17.4595 8.81982 16.0015C8.81518 15.9104 8.817 16.1504 8.817 12.1049C8.78787 10.7875 8.84796 6.14151 12.2039 2.9067C16.106 -0.854355 22.2898 -0.546624 26.7692 1.46546C26.9148 1.53101 26.9103 1.73951 26.7628 1.80051Z" fill="#4D4E59"/>
<path d="M18.0658 24.2292C19.5472 25.1556 18.3781 27.4289 16.7566 26.7782C13.4264 25.4417 11.0921 22.195 11.0921 18.408C11.0921 16.7443 11.0754 15.5698 11.0694 14.5486C11.0636 13.6344 11.333 12.7849 11.7979 12.0771C12.3822 11.1875 13.793 11.5752 13.8007 12.7277C13.8067 13.7523 13.8235 14.9217 13.8235 16.5871C13.8234 19.91 15.5703 22.6686 18.0658 24.2292Z" fill="#FFEBD2"/>
</g>
</svg>
