<svg width="12" height="12" viewBox="0 0 12 12" fill="none" xmlns="http://www.w3.org/2000/svg">
<path fill-rule="evenodd" clip-rule="evenodd" d="M8.61374 3.91424C8.79936 4.06892 8.82444 4.3448 8.66976 4.53042L5.7969 7.97784C5.60868 8.20371 5.26714 8.2192 5.05924 8.0113L3.35763 6.3097C3.18678 6.13884 3.18678 5.86183 3.35763 5.69098C3.52849 5.52012 3.8055 5.52012 3.97635 5.69098L5.38759 7.10222L7.99756 3.97026C8.15225 3.78463 8.42812 3.75956 8.61374 3.91424Z" fill="#BDBDBD"/>
<path fill-rule="evenodd" clip-rule="evenodd" d="M10.667 1.04199H1.33366C1.17258 1.04199 1.04199 1.17258 1.04199 1.33366V10.667C1.04199 10.8281 1.17258 10.9587 1.33366 10.9587H10.667C10.8281 10.9587 10.9587 10.8281 10.9587 10.667V1.33366C10.9587 1.17258 10.8281 1.04199 10.667 1.04199ZM1.33366 0.166992C0.689327 0.166992 0.166992 0.689327 0.166992 1.33366V10.667C0.166992 11.3113 0.689327 11.8337 1.33366 11.8337H10.667C11.3113 11.8337 11.8337 11.3113 11.8337 10.667V1.33366C11.8337 0.689327 11.3113 0.166992 10.667 0.166992H1.33366Z" fill="#BDBDBD"/>
</svg>
