<svg width="40" height="40" viewBox="0 0 40 40" fill="none" xmlns="http://www.w3.org/2000/svg">
<path d="M20 15C17.29 15 15 17.29 15 20C15 22.71 17.29 25 20 25C22.71 25 25 22.71 25 20C25 17.29 22.71 15 20 15Z" fill="white"/>
<path d="M33.5 9.44444H28.121L23.621 5H16.379L11.879 9.44444H6.5C6.10218 9.44444 5.72064 9.60053 5.43934 9.87836C5.15804 10.1562 5 10.533 5 10.9259V30.1852C5 30.5781 5.15804 30.9549 5.43934 31.2328C5.72064 31.5106 6.10218 31.6667 6.5 31.6667H33.5C33.8978 31.6667 34.2794 31.5106 34.5607 31.2328C34.842 30.9549 35 30.5781 35 30.1852V10.9259C35 10.533 34.842 10.1562 34.5607 9.87836C34.2794 9.60053 33.8978 9.44444 33.5 9.44444ZM20 27.2222C15.935 27.2222 12.5 23.8296 12.5 19.8148C12.5 15.8 15.935 12.4074 20 12.4074C24.065 12.4074 27.5 15.8 27.5 19.8148C27.5 23.8296 24.065 27.2222 20 27.2222Z" fill="white"/>
</svg>
