<svg width="10" height="10" viewBox="0 0 10 10" fill="white" xmlns="http://www.w3.org/2000/svg">
<path fill-rule="evenodd" clip-rule="evenodd" d="M8.92101 1.0791C9.13755 1.29564 9.13755 1.64674 8.92101 1.86328L5.78427 5.00002L8.92101 8.13676C9.13755 8.35331 9.13755 8.7044 8.92101 8.92095C8.70446 9.13749 8.35337 9.13749 8.13682 8.92095L5.00008 5.78421L1.86334 8.92095C1.6468 9.13749 1.2957 9.13749 1.07916 8.92095C0.862611 8.7044 0.862611 8.35331 1.07916 8.13676L4.2159 5.00002L1.07916 1.86328C0.862611 1.64674 0.862611 1.29564 1.07916 1.0791C1.2957 0.862551 1.6468 0.862551 1.86334 1.0791L5.00008 4.21584L8.13682 1.0791C8.35337 0.86255 8.70446 0.86255 8.92101 1.0791Z" fill="white"/>
</svg>
