<svg width="12" height="12" viewBox="0 0 12 12" fill="none" xmlns="http://www.w3.org/2000/svg">
<path d="M10.4212 3.07469H8.17557V2.01098C8.17557 1.71846 8.05206 1.45253 7.84434 1.26106C7.64223 1.06427 7.36153 0.947266 7.05276 0.947266H4.80715C4.1896 0.947266 3.68434 1.42594 3.68434 2.01098V3.07469H1.43872C0.821181 3.07469 0.315918 3.55336 0.315918 4.1384V9.98882C0.315918 10.5739 0.821181 11.0525 1.43872 11.0525H10.4212C11.0387 11.0525 11.544 10.5739 11.544 9.98882V4.1384C11.544 3.55336 11.0387 3.07469 10.4212 3.07469ZM4.80715 2.01098H7.05276V3.07469H4.80715V2.01098ZM5.63409 8.93947C5.48517 9.08055 5.25193 9.08055 5.10301 8.93947C4.94226 8.78718 4.94226 8.53118 5.10301 8.37889L6.10821 7.42659C6.31638 7.22937 6.31638 6.89785 6.10821 6.70063L5.10301 5.74833C4.94226 5.59604 4.94226 5.34004 5.10301 5.18775C5.25193 5.04667 5.48517 5.04667 5.63409 5.18775L7.23102 6.70063C7.43919 6.89785 7.43919 7.22937 7.23102 7.42659L5.63409 8.93947Z" fill="#FA8036"/>
</svg>
