<svg width="16" height="16" viewBox="0 0 16 16" fill="none" xmlns="http://www.w3.org/2000/svg">
<path fill-rule="evenodd" clip-rule="evenodd" d="M14.375 13.9604V6.7317C14.375 6.61157 14.3204 6.49833 14.2273 6.42553L8.22727 1.73343C8.09302 1.62845 7.90698 1.62845 7.77273 1.73343L1.77273 6.42553C1.67964 6.49833 1.625 6.61157 1.625 6.7317V13.9604C1.625 14.173 1.79289 14.3453 2 14.3453H14C14.2071 14.3453 14.375 14.173 14.375 13.9604ZM1.09094 5.50705C0.718563 5.79825 0.5 6.2512 0.5 6.7317V13.9604C0.5 14.8107 1.17157 15.5 2 15.5H14C14.8284 15.5 15.5 14.8107 15.5 13.9604V6.7317C15.5 6.2512 15.2814 5.79825 14.9091 5.50705L8.90907 0.814952C8.37207 0.395016 7.62793 0.395016 7.09093 0.814953L1.09094 5.50705Z" fill="white"/>
<path d="M3.875 11.5625C3.875 11.2518 4.12684 11 4.4375 11H11.5625C11.8732 11 12.125 11.2518 12.125 11.5625C12.125 11.8732 11.8732 12.125 11.5625 12.125H4.4375C4.12684 12.125 3.875 11.8732 3.875 11.5625Z" fill="white"/>
</svg>
