<svg width="16" height="16" viewBox="0 0 16 16" fill="none" xmlns="http://www.w3.org/2000/svg">
<path fill-rule="evenodd" clip-rule="evenodd" d="M14 1.625H2C1.79289 1.625 1.625 1.79289 1.625 2V11.75C1.625 11.9571 1.79289 12.125 2 12.125H11.3345C11.8103 12.125 12.2771 12.2543 12.6851 12.4991L14.375 13.513V2C14.375 1.79289 14.2071 1.625 14 1.625ZM15.5 2C15.5 1.17157 14.8284 0.5 14 0.5H2C1.17157 0.5 0.5 1.17157 0.5 2V11.75C0.5 12.5784 1.17157 13.25 2 13.25H11.3345C11.6064 13.25 11.8731 13.3239 12.1063 13.4638L15.5 15.5V2Z" fill="#7D838E"/>
<path d="M5 6.5H6.5V8H5V6.5Z" fill="#7D838E"/>
<path d="M9.5 6.5H11V8H9.5V6.5Z" fill="#7D838E"/>
</svg>
