<svg width="12" height="12" viewBox="0 0 12 12" fill="none" xmlns="http://www.w3.org/2000/svg">
<path d="M9.2 3.79578C9.37367 3.74923 9.52725 3.64684 9.63704 3.5044C9.7468 3.36195 9.80667 3.18735 9.80744 3.00752V3.00538C9.80744 2.78924 9.72161 2.58195 9.56876 2.42912C9.41595 2.27629 9.20868 2.19043 8.99259 2.19043H8.9905C8.81069 2.19122 8.63615 2.25112 8.49376 2.3609C8.35136 2.47068 8.24898 2.62425 8.20247 2.79795C8.06935 3.28021 7.7817 3.70548 7.38371 4.00855C6.98567 4.31161 6.49925 4.47573 5.99901 4.47573C5.49876 4.47573 5.01233 4.31161 4.61431 4.00855C4.21629 3.70548 3.92866 3.28021 3.79554 2.79795C3.74898 2.62427 3.6466 2.47072 3.50418 2.36096C3.36176 2.2512 3.18721 2.19133 3.00742 2.19057H3.00528C2.78917 2.19057 2.58191 2.27643 2.42909 2.42926C2.27628 2.58209 2.19043 2.78938 2.19043 3.00552V3.00765C2.19123 3.18747 2.25112 3.36203 2.36089 3.50445C2.47066 3.64687 2.62421 3.74924 2.79788 3.79578C3.28008 3.92891 3.70531 4.21658 4.00833 4.61464C4.31136 5.01271 4.47546 5.4992 4.47546 5.9995C4.47546 6.4998 4.31136 6.98628 4.00833 7.38437C3.70531 7.78245 3.28008 8.0701 2.79788 8.20323C2.62422 8.24979 2.47068 8.35214 2.36092 8.49455C2.25116 8.63696 2.19127 8.81152 2.19048 8.99131V8.99345C2.19048 9.20961 2.27633 9.41686 2.42914 9.56973C2.58196 9.72255 2.78921 9.8084 3.00533 9.8084H3.00747C3.18726 9.80762 3.3618 9.74769 3.50421 9.63793C3.6466 9.52812 3.74896 9.37457 3.7955 9.20088C3.92862 8.71863 4.21625 8.29335 4.61426 7.9903C5.01228 7.6872 5.49872 7.5231 5.99896 7.5231C6.4992 7.5231 6.98562 7.6872 7.38366 7.9903C7.78165 8.29335 8.0693 8.71863 8.20242 9.20088C8.24893 9.37457 8.35132 9.52817 8.49371 9.63798C8.63611 9.74774 8.81069 9.80767 8.9905 9.80844H8.99264C9.20873 9.80844 9.416 9.72255 9.5688 9.56973C9.72161 9.4169 9.80749 9.20961 9.80749 8.99349V8.99131C9.80672 8.81148 9.7468 8.63692 9.63704 8.49451C9.52725 8.3521 9.37372 8.24975 9.20004 8.20318C8.71785 8.07005 8.29262 7.78241 7.98961 7.38432C7.68654 6.98624 7.52246 6.49976 7.52246 5.99946C7.52246 5.49915 7.68654 5.01267 7.98961 4.6146C8.29262 4.21653 8.71785 3.92887 9.20004 3.79573L9.2 3.79578Z" fill="#5165F7"/>
<path d="M2.01313 1.42985C2.03934 1.45591 2.07303 1.47317 2.1095 1.47921C2.14597 1.48524 2.18341 1.47976 2.21663 1.46353C2.51968 1.31718 2.86067 1.26844 3.19258 1.32402C3.5245 1.3796 3.83101 1.53678 4.06984 1.77387C4.10277 1.80705 4.14726 1.82618 4.19399 1.82725C4.24072 1.82832 4.28604 1.81124 4.32044 1.7796C4.33754 1.76328 4.3512 1.74372 4.36062 1.72204C4.37005 1.70037 4.37504 1.67703 4.37532 1.6534C4.37559 1.62977 4.37114 1.60632 4.36223 1.58444C4.35331 1.56255 4.34011 1.54267 4.3234 1.52596C4.03215 1.23542 3.6577 1.04273 3.25199 0.974619C2.84629 0.906505 2.42944 0.966343 2.05928 1.14583C2.03408 1.15833 2.01221 1.17665 1.99551 1.19929C1.97881 1.22192 1.96774 1.24822 1.96323 1.27598C1.95872 1.30375 1.96089 1.33219 1.96957 1.35895C1.97825 1.38571 1.99318 1.41001 2.01313 1.42985Z" fill="#5165F7"/>
<path d="M1.1465 2.05746C0.967247 2.42647 0.906902 2.84203 0.973795 3.2468C1.04069 3.65157 1.23152 4.02561 1.51997 4.3173C1.5503 4.34918 1.59115 4.36899 1.63496 4.37308C1.67876 4.37717 1.72257 4.36525 1.75828 4.33953C1.7785 4.32425 1.79522 4.3048 1.80729 4.2825C1.81937 4.26021 1.82652 4.23558 1.82827 4.21028C1.83002 4.18499 1.82632 4.15961 1.81743 4.13586C1.80854 4.11211 1.79466 4.09055 1.77673 4.07263C1.53844 3.83371 1.38033 3.52658 1.32431 3.19379C1.2683 2.861 1.31715 2.51902 1.4641 2.21524C1.48045 2.18198 1.48602 2.14445 1.48003 2.10788C1.47404 2.0713 1.45679 2.03752 1.43068 2.01122C1.41083 1.99125 1.38652 1.9763 1.35974 1.96761C1.33296 1.95893 1.3045 1.95676 1.27671 1.96128C1.24893 1.9658 1.22262 1.97689 1.19998 1.99361C1.17733 2.01034 1.159 2.03223 1.1465 2.05746Z" fill="#5165F7"/>
<path d="M9.78272 10.5358C9.47957 10.6822 9.1385 10.7309 8.80647 10.6752C8.47449 10.6196 8.16793 10.4623 7.9291 10.225C7.89623 10.192 7.85191 10.173 7.80535 10.1719C7.75875 10.1708 7.7136 10.1878 7.67928 10.2193C7.66209 10.2356 7.64836 10.2552 7.63886 10.2769C7.6294 10.2986 7.62436 10.322 7.62404 10.3456C7.62372 10.3693 7.62818 10.3928 7.63709 10.4147C7.646 10.4367 7.65923 10.4566 7.67596 10.4734C7.9672 10.7639 8.34165 10.9565 8.74737 11.0247C9.15305 11.0928 9.56991 11.033 9.94008 10.8535C9.96526 10.841 9.98713 10.8227 10.0039 10.8C10.0205 10.7774 10.0316 10.7511 10.0361 10.7233C10.0406 10.6955 10.0384 10.6671 10.0297 10.6403C10.021 10.6136 10.0061 10.5893 9.98613 10.5695C9.95994 10.5434 9.92626 10.5262 9.88979 10.5201C9.85338 10.5141 9.81591 10.5195 9.78272 10.5358Z" fill="#5165F7"/>
<path d="M10.2189 7.67844C10.1873 7.71277 10.1703 7.75793 10.1714 7.80453C10.1725 7.85109 10.1915 7.89547 10.2245 7.9283C10.462 8.16733 10.6193 8.47421 10.6749 8.8065C10.7304 9.13884 10.6814 9.48018 10.5346 9.78346C10.5184 9.81669 10.5129 9.85416 10.5189 9.89067C10.5249 9.92719 10.5421 9.96092 10.5682 9.98716C10.5881 10.0071 10.6123 10.022 10.6391 10.0308C10.6658 10.0395 10.6942 10.0416 10.722 10.0371C10.7497 10.0326 10.7761 10.0216 10.7987 10.0049C10.8213 9.98825 10.8397 9.96643 10.8522 9.94124C11.0322 9.57093 11.0925 9.15375 11.0245 8.74766C10.9566 8.34153 10.7639 7.96668 10.4731 7.67513C10.4564 7.65835 10.4364 7.64512 10.4145 7.63616C10.3925 7.6272 10.369 7.62274 10.3453 7.62306C10.3216 7.62338 10.2982 7.62843 10.2765 7.63798C10.2547 7.64748 10.2352 7.66121 10.2189 7.67844Z" fill="#5165F7"/>
<path d="M10.5349 2.21486C10.6815 2.51808 10.7304 2.85935 10.6748 3.19154C10.6192 3.52373 10.4619 3.83047 10.2245 4.06943C10.1915 4.10227 10.1725 4.14662 10.1714 4.19319C10.1703 4.23975 10.1873 4.28492 10.2189 4.31924C10.2351 4.33642 10.2547 4.35016 10.2764 4.35966C10.2981 4.36915 10.3215 4.3742 10.3452 4.37452C10.3688 4.37483 10.3923 4.3704 10.4143 4.36148C10.4362 4.35256 10.4561 4.33935 10.4729 4.3226C10.7635 4.03119 10.9563 3.65649 11.0243 3.25053C11.0924 2.84458 11.0323 2.4275 10.8526 2.05722C10.8401 2.03202 10.8217 2.01018 10.7991 1.99349C10.7764 1.9768 10.7501 1.96575 10.7224 1.96126C10.6946 1.95676 10.6662 1.95895 10.6394 1.96765C10.6127 1.97634 10.5884 1.99129 10.5686 2.01125C10.5425 2.03748 10.5252 2.07118 10.5192 2.10767C10.5132 2.14417 10.5187 2.18163 10.5349 2.21486Z" fill="#5165F7"/>
<path d="M7.9291 1.77433C8.16802 1.53698 8.47472 1.37964 8.80688 1.32403C9.13904 1.26843 9.48025 1.3173 9.78345 1.4639C9.81669 1.48017 9.85415 1.48568 9.89061 1.47966C9.92712 1.47364 9.96081 1.45638 9.98704 1.4303C10.007 1.41049 10.022 1.38619 10.0306 1.35944C10.0393 1.33269 10.0415 1.30426 10.037 1.27649C10.0326 1.24872 10.0215 1.22243 10.0048 1.19979C9.98813 1.17715 9.96627 1.15881 9.94108 1.14629C9.57082 0.966522 9.15382 0.906492 8.74792 0.974538C8.34201 1.04258 7.96734 1.23533 7.67596 1.52601C7.65923 1.54275 7.646 1.56267 7.63709 1.58461C7.62818 1.60654 7.62372 1.63004 7.62404 1.65371C7.62436 1.67739 7.6294 1.70076 7.63886 1.72245C7.64836 1.74415 7.66209 1.76372 7.67928 1.78002C7.7136 1.8115 7.75875 1.82849 7.80535 1.82743C7.85191 1.82638 7.89623 1.80735 7.9291 1.77433Z" fill="#5165F7"/>
<path d="M4.07064 10.2251C3.83172 10.4624 3.52501 10.6197 3.19286 10.6753C2.8607 10.731 2.51948 10.6821 2.21629 10.5355C2.18307 10.5192 2.14561 10.5137 2.10912 10.5197C2.07263 10.5258 2.03893 10.543 2.0127 10.5691C1.99275 10.5889 1.97781 10.6132 1.96911 10.64C1.96042 10.6667 1.95823 10.6952 1.96272 10.7229C1.96722 10.7507 1.97826 10.777 1.99495 10.7996C2.01164 10.8222 2.03348 10.8406 2.05867 10.8531C2.42891 11.0329 2.84594 11.0929 3.25185 11.0248C3.65775 10.9568 4.03241 10.764 4.32379 10.4734C4.34053 10.4567 4.35375 10.4367 4.36266 10.4148C4.37157 10.3929 4.37601 10.3694 4.37569 10.3457C4.37538 10.322 4.37033 10.2986 4.36084 10.2769C4.35134 10.2553 4.3376 10.2357 4.32042 10.2194C4.28612 10.1879 4.24095 10.1709 4.19439 10.1719C4.14783 10.173 4.10348 10.192 4.07064 10.2251Z" fill="#5165F7"/>
<path d="M1.46393 9.78469C1.31732 9.48145 1.26843 9.1402 1.32403 8.808C1.37962 8.4758 1.53696 8.16906 1.77431 7.93012C1.80732 7.89724 1.82635 7.85291 1.82741 7.80635C1.82847 7.75974 1.81148 7.71459 1.77999 7.68026C1.76369 7.66307 1.74412 7.64934 1.72243 7.63984C1.70074 7.63038 1.67736 7.62533 1.65369 7.62502C1.63002 7.6247 1.60652 7.62915 1.58459 7.63807C1.56266 7.64698 1.54273 7.66021 1.52599 7.67694C1.23532 7.96836 1.04258 8.34307 0.974537 8.74902C0.906494 9.15498 0.966521 9.57202 1.14629 9.94233C1.1588 9.96752 1.17714 9.98939 1.19978 10.0061C1.22242 10.0228 1.24872 10.0338 1.27648 10.0383C1.30425 10.0428 1.33268 10.0406 1.35943 10.0319C1.38618 10.0232 1.41047 10.0083 1.43029 9.9883C1.45637 9.96206 1.47361 9.92837 1.47965 9.89186C1.48568 9.85539 1.48018 9.81792 1.46393 9.78469Z" fill="#5165F7"/>
</svg>
