<svg width="20" height="14" viewBox="0 0 20 14" fill="white" xmlns="http://www.w3.org/2000/svg">
<path fill-rule="evenodd" clip-rule="evenodd" d="M0 1.28C0 0.849218 0.344396 0.5 0.769231 0.5H19.2308C19.6556 0.5 20 0.849218 20 1.28C20 1.71078 19.6556 2.06 19.2308 2.06H0.769231C0.344396 2.06 0 1.71078 0 1.28ZM0 7C0 6.56922 0.344396 6.22 0.769231 6.22H19.2308C19.6556 6.22 20 6.56922 20 7C20 7.43078 19.6556 7.78 19.2308 7.78H0.769231C0.344396 7.78 0 7.43078 0 7ZM0 12.72C0 12.2892 0.344396 11.94 0.769231 11.94H19.2308C19.6556 11.94 20 12.2892 20 12.72C20 13.1508 19.6556 13.5 19.2308 13.5H0.769231C0.344396 13.5 0 13.1508 0 12.72Z"/>
</svg>
