<svg width="16" height="18" viewBox="0 0 16 18" fill="none" xmlns="http://www.w3.org/2000/svg">
<path fill-rule="evenodd" clip-rule="evenodd" d="M8 1.94904C5.51472 1.94904 3.5 3.95802 3.5 6.43622C3.5 8.24258 3.04914 10.0257 2.60987 11.3398C2.44192 11.8422 2.27392 12.2811 2.12992 12.6328H13.8701C13.7261 12.2811 13.5581 11.8422 13.3901 11.3398C12.9509 10.0257 12.5 8.24258 12.5 6.43622C12.5 3.95802 10.4853 1.94904 8 1.94904ZM15.4322 12.9873C15.5318 13.186 15.5211 13.4219 15.404 13.6108C15.2869 13.7998 15.0799 13.9149 14.8571 13.9149H11.2143V14.1285C11.2143 15.8987 9.7752 17.3337 8 17.3337C6.2248 17.3337 4.78572 15.8987 4.78572 14.1285V13.9149H1.14286C0.920059 13.9149 0.713145 13.7998 0.596012 13.6108C0.478936 13.4219 0.468239 13.1861 0.567723 12.9874C0.567726 12.9874 0.567729 12.9874 0.567732 12.9874L0.567755 12.9874L0.567761 12.9874L0.567777 12.9873C0.567808 12.9873 0.567839 12.9872 0.56787 12.9872L0.568209 12.9865L0.570968 12.9809L0.583437 12.9554C0.594736 12.9321 0.611857 12.8964 0.633973 12.8492C0.678217 12.7546 0.742377 12.6139 0.819837 12.4337C0.974895 12.0729 1.18248 11.5556 1.39013 10.9344C1.80801 9.68431 2.21429 8.04867 2.21429 6.43622C2.21429 3.24996 4.80464 0.666992 8 0.666992C11.1954 0.666992 13.7857 3.24996 13.7857 6.43622C13.7857 8.04867 14.192 9.68431 14.6099 10.9344C14.8175 11.5556 15.0251 12.0729 15.1802 12.4337C15.2576 12.6139 15.3218 12.7546 15.366 12.8492C15.3881 12.8964 15.4053 12.9321 15.4166 12.9554L15.429 12.9809L15.4318 12.9865L15.4321 12.9872C15.4322 12.9872 15.4322 12.9873 15.4322 12.9873ZM6.07143 13.9149V14.1285C6.07143 15.1906 6.93488 16.0516 8 16.0516C9.06512 16.0516 9.92857 15.1906 9.92857 14.1285V13.9149H6.07143Z" fill="#848588"/>
</svg>
