<svg width="12" height="4" viewBox="0 0 12 4" fill="none" xmlns="http://www.w3.org/2000/svg">
<path d="M6 2.72949C6.36244 2.72949 6.65625 2.43568 6.65625 2.07324C6.65625 1.71081 6.36244 1.41699 6 1.41699C5.63756 1.41699 5.34375 1.71081 5.34375 2.07324C5.34375 2.43568 5.63756 2.72949 6 2.72949Z" fill="#878B8F"/>
<path d="M10.5938 2.72949C10.9562 2.72949 11.25 2.43568 11.25 2.07324C11.25 1.71081 10.9562 1.41699 10.5938 1.41699C10.2313 1.41699 9.9375 1.71081 9.9375 2.07324C9.9375 2.43568 10.2313 2.72949 10.5938 2.72949Z" fill="#878B8F"/>
<path d="M1.40625 2.72949C1.76869 2.72949 2.0625 2.43568 2.0625 2.07324C2.0625 1.71081 1.76869 1.41699 1.40625 1.41699C1.04381 1.41699 0.75 1.71081 0.75 2.07324C0.75 2.43568 1.04381 2.72949 1.40625 2.72949Z" fill="#878B8F"/>
<path d="M6 2.72949C6.36244 2.72949 6.65625 2.43568 6.65625 2.07324C6.65625 1.71081 6.36244 1.41699 6 1.41699C5.63756 1.41699 5.34375 1.71081 5.34375 2.07324C5.34375 2.43568 5.63756 2.72949 6 2.72949Z" stroke="#878B8F" stroke-linecap="round" stroke-linejoin="round"/>
<path d="M10.5938 2.72949C10.9562 2.72949 11.25 2.43568 11.25 2.07324C11.25 1.71081 10.9562 1.41699 10.5938 1.41699C10.2313 1.41699 9.9375 1.71081 9.9375 2.07324C9.9375 2.43568 10.2313 2.72949 10.5938 2.72949Z" stroke="#878B8F" stroke-linecap="round" stroke-linejoin="round"/>
<path d="M1.40625 2.72949C1.76869 2.72949 2.0625 2.43568 2.0625 2.07324C2.0625 1.71081 1.76869 1.41699 1.40625 1.41699C1.04381 1.41699 0.75 1.71081 0.75 2.07324C0.75 2.43568 1.04381 2.72949 1.40625 2.72949Z" stroke="#878B8F" stroke-linecap="round" stroke-linejoin="round"/>
</svg>
