<svg width="16" height="12" viewBox="0 0 16 12" fill="none" xmlns="http://www.w3.org/2000/svg">
<path fill-rule="evenodd" clip-rule="evenodd" d="M6.11189 1.16129C5.01227 1.16129 4.17133 2.00705 4.17133 2.98925C4.17133 3.97144 5.01227 4.8172 6.11189 4.8172C7.21151 4.8172 8.05245 3.97144 8.05245 2.98925C8.05245 2.00705 7.21151 1.16129 6.11189 1.16129ZM3.01748 2.98925C3.01748 1.31097 4.43078 0 6.11189 0C7.793 0 9.20629 1.31097 9.20629 2.98925C9.20629 4.66752 7.793 5.97849 6.11189 5.97849C4.43078 5.97849 3.01748 4.66752 3.01748 2.98925ZM9.31119 0.580645C9.31119 0.259964 9.56949 0 9.88811 0C11.5692 0 12.9825 1.31097 12.9825 2.98925C12.9825 4.66752 11.5692 5.97849 9.88811 5.97849C9.56949 5.97849 9.31119 5.71853 9.31119 5.39785C9.31119 5.07717 9.56949 4.8172 9.88811 4.8172C10.9877 4.8172 11.8287 3.97144 11.8287 2.98925C11.8287 2.00705 10.9877 1.16129 9.88811 1.16129C9.56949 1.16129 9.31119 0.901327 9.31119 0.580645ZM0.5 10.2151C0.5 8.53678 1.91329 7.22581 3.59441 7.22581H8.62937C10.3105 7.22581 11.7238 8.53678 11.7238 10.2151V11.4194C11.7238 11.74 11.4655 12 11.1469 12C10.8282 12 10.5699 11.74 10.5699 11.4194V10.2151C10.5699 9.23286 9.72899 8.3871 8.62937 8.3871H3.59441C2.49478 8.3871 1.65385 9.23286 1.65385 10.2151V11.4194C1.65385 11.74 1.39555 12 1.07692 12C0.758297 12 0.5 11.74 0.5 11.4194V10.2151ZM11.514 7.80645C11.514 7.48577 11.7723 7.22581 12.0909 7.22581H12.4056C14.0867 7.22581 15.5 8.53678 15.5 10.2151V11.4194C15.5 11.74 15.2417 12 14.9231 12C14.6045 12 14.3462 11.74 14.3462 11.4194V10.2151C14.3462 9.23286 13.5052 8.3871 12.4056 8.3871H12.0909C11.7723 8.3871 11.514 8.12713 11.514 7.80645Z" fill="white"/>
</svg>
