<svg width="14" height="16" viewBox="0 0 14 16" fill="none" xmlns="http://www.w3.org/2000/svg">
<path fill-rule="evenodd" clip-rule="evenodd" d="M4.68571 0.5C5.00525 0.5 5.26429 0.758297 5.26429 1.07692V2.03846H8.73571V1.07692C8.73571 0.758297 8.99475 0.5 9.31429 0.5C9.63382 0.5 9.89286 0.758297 9.89286 1.07692V2.03846H11.6286C12.8002 2.03846 13.75 2.98555 13.75 4.15385V13.3846C13.75 14.5529 12.8002 15.5 11.6286 15.5H2.37143C1.1998 15.5 0.25 14.5529 0.25 13.3846V4.15385C0.25 2.98555 1.1998 2.03846 2.37143 2.03846H4.10714V1.07692C4.10714 0.758297 4.36618 0.5 4.68571 0.5ZM4.10714 3.19231H2.37143C1.83887 3.19231 1.40714 3.6228 1.40714 4.15385V6.65385H12.5929V4.15385C12.5929 3.6228 12.1611 3.19231 11.6286 3.19231H9.89286V4.15385C9.89286 4.47247 9.63382 4.73077 9.31429 4.73077C8.99475 4.73077 8.73571 4.47247 8.73571 4.15385V3.19231H5.26429V4.15385C5.26429 4.47247 5.00525 4.73077 4.68571 4.73077C4.36618 4.73077 4.10714 4.47247 4.10714 4.15385V3.19231ZM12.5929 7.80769H1.40714V13.3846C1.40714 13.9157 1.83887 14.3462 2.37143 14.3462H11.6286C12.1611 14.3462 12.5929 13.9157 12.5929 13.3846V7.80769Z" fill="white"/>
</svg>
