<svg width="12" height="16" viewBox="0 0 12 16" fill="none" xmlns="http://www.w3.org/2000/svg">
<path d="M2.25 12.3125C2.25 12.0018 2.50184 11.75 2.8125 11.75H9.1875C9.49816 11.75 9.75 12.0018 9.75 12.3125C9.75 12.6232 9.49816 12.875 9.1875 12.875H2.8125C2.50184 12.875 2.25 12.6232 2.25 12.3125Z" fill="white"/>
<path d="M2.25 9.3125C2.25 9.00184 2.50184 8.75 2.8125 8.75H7.6875C7.99816 8.75 8.25 9.00184 8.25 9.3125C8.25 9.62316 7.99816 9.875 7.6875 9.875H2.8125C2.50184 9.875 2.25 9.62316 2.25 9.3125Z" fill="white"/>
<path fill-rule="evenodd" clip-rule="evenodd" d="M6.9375 3.5V1.625H1.5C1.29289 1.625 1.125 1.79289 1.125 2V14C1.125 14.2071 1.29289 14.375 1.5 14.375H10.5C10.7071 14.375 10.875 14.2071 10.875 14V5.5625H9C7.86091 5.5625 6.9375 4.63909 6.9375 3.5ZM12 14C12 14.8284 11.3284 15.5 10.5 15.5H1.5C0.671573 15.5 0 14.8284 0 14V2C0 1.17157 0.671573 0.5 1.5 0.5H8.25L12 4.25V14ZM10.5965 4.4375L8.0625 1.90349V3.5C8.0625 4.01777 8.48223 4.4375 9 4.4375H10.5965Z" fill="white"/>
</svg>
