<svg width="14" height="14" viewBox="0 0 14 14" fill="none" xmlns="http://www.w3.org/2000/svg">
<path fill-rule="evenodd" clip-rule="evenodd" d="M4.1948 2.27503C4.1948 1.17524 5.13307 0.333374 6.22732 0.333374H7.77203C8.86628 0.333374 9.80455 1.17524 9.80455 2.27503V2.51415H13.1785C13.4479 2.51415 13.6663 2.73255 13.6663 3.00195C13.6663 3.27136 13.4479 3.48976 13.1785 3.48976H12.1216V11.7251C12.1216 12.8248 11.1834 13.6667 10.0891 13.6667H3.91024C2.816 13.6667 1.87772 12.8248 1.87772 11.7251V3.48976H0.820813C0.551406 3.48976 0.333008 3.27136 0.333008 3.00195C0.333008 2.73255 0.551406 2.51415 0.820813 2.51415H4.1948V2.27503ZM2.85333 3.48976V11.7251C2.85333 12.2311 3.29825 12.6911 3.91024 12.6911H10.0891C10.7011 12.6911 11.146 12.2311 11.146 11.7251V3.48976H2.85333ZM8.82894 2.51415H5.17041V2.27503C5.17041 1.76894 5.61532 1.30898 6.22732 1.30898H7.77203C8.38403 1.30898 8.82894 1.76894 8.82894 2.27503V2.51415ZM5.45496 5.42185C5.72437 5.42185 5.94276 5.64025 5.94276 5.90965V10.2712C5.94276 10.5406 5.72437 10.759 5.45496 10.759C5.18555 10.759 4.96715 10.5406 4.96715 10.2712V5.90965C4.96715 5.64025 5.18555 5.42185 5.45496 5.42185ZM8.54439 5.42185C8.8138 5.42185 9.0322 5.64025 9.0322 5.90965V10.2712C9.0322 10.5406 8.8138 10.759 8.54439 10.759C8.27498 10.759 8.05659 10.5406 8.05659 10.2712V5.90965C8.05659 5.64025 8.27498 5.42185 8.54439 5.42185Z" fill="#E44258"/>
</svg>
