<svg width="16" height="16" viewBox="0 0 16 16" fill="none" xmlns="http://www.w3.org/2000/svg">
<path d="M8 16C12.4183 16 16 12.4183 16 8C16 3.58172 12.4183 0 8 0C3.58172 0 0 3.58172 0 8C0 12.4183 3.58172 16 8 16Z" fill="#F0F0F0"/>
<path d="M2.34314 13.6575C-0.781047 10.5333 -0.781047 5.46797 2.34314 2.34375C2.34292 2.34409 6.95655 8.00062 6.95655 8.00062L2.34314 13.6575Z" fill="black"/>
<path d="M6.95609 7.99959L1.06059 4.01562C0.877812 4.33334 0.716625 4.66497 0.578125 5.00822L3.56278 7.99963L0.578219 10.9912C0.716594 11.3342 0.877625 11.6656 1.06028 11.9831L6.95609 7.99959Z" fill="#FFDA44"/>
<path d="M15.9321 6.95703H6.95614L2.34289 2.34375C1.84577 2.84088 1.41386 3.40309 1.06086 4.01656L5.03708 8.0005L1.06055 11.9839C1.41355 12.5976 1.84564 13.16 2.34289 13.6572L6.95614 9.04397H15.9321C15.9766 8.70241 15.9998 8.35416 15.9998 8.0005C15.9998 7.64684 15.9766 7.29859 15.9321 6.95703Z" fill="#6DA544"/>
<path d="M3.12891 14.3457C4.47794 15.3826 6.16659 15.9995 7.99959 15.9995C11.6958 15.9995 14.806 13.4926 15.724 10.0865H7.38812L3.12891 14.3457Z" fill="#0052B4"/>
<path d="M15.724 5.91303C14.806 2.50691 11.6958 0 7.99959 0C6.16659 0 4.47794 0.616906 3.12891 1.65384L7.38809 5.91303H15.724Z" fill="#D80027"/>
</svg>
