<svg width="16" height="16" viewBox="0 0 16 16" fill="none" xmlns="http://www.w3.org/2000/svg">
<path d="M0 7.99924C0 8.97777 0.176024 9.9151 0.497574 10.7817L7.99968 11.4774L15.5018 10.7817C15.8233 9.9151 15.9994 8.97777 15.9994 7.99924C15.9994 7.02071 15.8233 6.08337 15.5018 5.21675L7.99968 4.52112L0.497574 5.21675C0.176024 6.08337 0 7.02071 0 7.99924H0Z" fill="#FFDA44"/>
<path d="M15.5023 5.2172C14.372 2.17095 11.4397 0 8.00016 0C4.56057 0 1.62835 2.17095 0.498047 5.2172H15.5023Z" fill="#D80027"/>
<path d="M0.498047 10.7831C1.62835 13.8293 4.56057 16.0003 8.00016 16.0003C11.4397 16.0003 14.372 13.8293 15.5023 10.7831H0.498047Z" fill="#D80027"/>
</svg>
