<svg width="16" height="16" viewBox="0 0 16 16" fill="none" xmlns="http://www.w3.org/2000/svg">
<path d="M8 16C12.4183 16 16 12.4183 16 8C16 3.58172 12.4183 0 8 0C3.58172 0 0 3.58172 0 8C0 12.4183 3.58172 16 8 16Z" fill="#D80027"/>
<path d="M15.9323 6.95595H6.26091H6.26088V0.189575C5.52156 0.353513 4.82066 0.619231 4.17391 0.972138V6.95589V6.95592H0.0677188C0.0231875 7.29751 0 7.64576 0 7.99942C0 8.35308 0.0231875 8.70133 0.0677188 9.04289H4.17387H4.17391V15.0267C4.82066 15.3795 5.52156 15.6453 6.26088 15.8092V9.04298V9.04292H15.9323C15.9768 8.70133 16 8.35308 16 7.99942C16 7.64576 15.9768 7.29751 15.9323 6.95595Z" fill="#F0F0F0"/>
</svg>
