<svg width="16" height="16" viewBox="0 0 16 16" fill="none" xmlns="http://www.w3.org/2000/svg">
<path d="M0.498047 10.7822C1.62847 13.8287 4.561 15.9999 8.00095 15.9999C11.4409 15.9999 14.3734 13.8287 15.5039 10.7822L8.00095 10.0865L0.498047 10.7822Z" fill="#FFDA44"/>
<path d="M8.00095 0C4.561 0 1.62847 2.17114 0.498047 5.21775L8.00095 5.91342L15.5039 5.21772C14.3734 2.17114 11.4409 0 8.00095 0Z" fill="black"/>
<path d="M0.497627 5.21667C0.176043 6.08339 0 7.02083 0 7.99945C0 8.97808 0.176043 9.91552 0.497627 10.7822H15.5035C15.825 9.91552 16.0011 8.97808 16.0011 7.99945C16.0011 7.02083 15.825 6.08339 15.5034 5.21667H0.497627Z" fill="#D80027"/>
</svg>
