<svg width="16" height="16" viewBox="0 0 16 16" fill="none" xmlns="http://www.w3.org/2000/svg">
<path d="M15.5021 10.7763C15.8236 9.90964 15.9997 8.97228 15.9997 7.99374C15.9997 7.0152 15.8236 6.07784 15.5021 5.21121L7.99983 4.51556L0.497583 5.21121C0.176028 6.07784 0 7.0152 0 7.99374C0 8.97228 0.176028 9.90964 0.497583 10.7763L7.99983 11.4719L15.5021 10.7763Z" fill="#F0F0F0"/>
<path d="M8.00033 16C11.4399 16 14.3723 13.8291 15.5025 10.7827H0.498047C1.6284 13.8291 4.56065 16 8.00033 16Z" fill="#D80027"/>
<path d="M8.00033 0C4.56065 0 1.6284 2.17096 0.498047 5.2173H15.5026C14.3723 2.17096 11.4399 0 8.00033 0Z" fill="#496E2D"/>
<path d="M8.00046 6.26556L8.43211 7.59407H9.82905L8.69892 8.41521L9.13063 9.74374L8.00046 8.92273L6.8703 9.74374L7.30201 8.41521L6.17188 7.59407H7.56881L8.00046 6.26556Z" fill="black"/>
<path d="M10.3759 1.5625V3.18562C10.3759 3.4414 10.1678 3.64939 9.91211 3.64939V4.34504C10.5514 4.34504 11.0715 3.82495 11.0715 3.18562V1.5625H10.3759Z" fill="#F0F0F0"/>
<path d="M5.39053 3.18562C5.39053 3.4414 5.1825 3.64939 4.92676 3.64939V4.34504C5.56609 4.34504 6.08617 3.82495 6.08617 3.18562V1.5625H5.39053V3.18562Z" fill="#F0F0F0"/>
<path d="M9.33301 1.5625H10.0287V3.18562H9.33301V1.5625Z" fill="#F0F0F0"/>
<path d="M8.2906 2.48998C8.2906 2.55392 8.23857 2.60595 8.17467 2.60595C8.11073 2.60595 8.0587 2.55392 8.0587 2.48998V1.5625H7.36306V2.48998C7.36306 2.55392 7.31106 2.60595 7.24712 2.60595C7.18319 2.60595 7.13119 2.55392 7.13119 2.48998V1.5625H6.43555V2.48998C6.43555 2.93753 6.7996 3.30159 7.24712 3.30159C7.41946 3.30159 7.57934 3.24743 7.71086 3.15547C7.84246 3.24743 8.0023 3.30159 8.17464 3.30159C8.20935 3.30159 8.24348 3.29915 8.27704 3.29487C8.22773 3.49796 8.04483 3.64939 7.82683 3.64939V4.34504C8.46613 4.34504 8.98621 3.82495 8.98621 3.18562V2.48998V1.5625H8.29057L8.2906 2.48998Z" fill="#F0F0F0"/>
<path d="M6.43555 3.65625H7.47899V4.35189H6.43555V3.65625Z" fill="#F0F0F0"/>
</svg>
