<svg width="16" height="16" viewBox="0 0 16 16" fill="none" xmlns="http://www.w3.org/2000/svg">
<path d="M8 16C12.4183 16 16 12.4183 16 8C16 3.58172 12.4183 0 8 0C3.58172 0 0 3.58172 0 8C0 12.4183 3.58172 16 8 16Z" fill="#F0F0F0"/>
<path d="M1.65257 3.13245C1.02416 3.95004 0.55032 4.89238 0.274414 5.9161H4.43623L1.65257 3.13245Z" fill="#0052B4"/>
<path d="M15.7223 5.91352C15.4464 4.88982 14.9725 3.94748 14.3441 3.12988L11.5605 5.91352H15.7223Z" fill="#0052B4"/>
<path d="M0.274414 10.0892C0.550352 11.1129 1.0242 12.0553 1.65257 12.8728L4.43613 10.0892H0.274414Z" fill="#0052B4"/>
<path d="M12.8696 1.65492C12.052 1.02651 11.1097 0.552671 10.0859 0.276733V4.43851L12.8696 1.65492Z" fill="#0052B4"/>
<path d="M3.12891 14.3478C3.9465 14.9762 4.88884 15.45 5.91253 15.726V11.5642L3.12891 14.3478Z" fill="#0052B4"/>
<path d="M5.9125 0.276733C4.88881 0.552671 3.94647 1.02651 3.12891 1.65489L5.9125 4.43848V0.276733Z" fill="#0052B4"/>
<path d="M10.0859 15.726C11.1096 15.45 12.052 14.9762 12.8695 14.3478L10.0859 11.5642V15.726Z" fill="#0052B4"/>
<path d="M11.5605 10.0892L14.3441 12.8729C14.9725 12.0553 15.4464 11.1129 15.7223 10.0892H11.5605Z" fill="#0052B4"/>
<path d="M15.9323 6.95653H9.04353H9.0435V0.0677188C8.70191 0.02325 8.35366 0 8 0C7.64628 0 7.29809 0.02325 6.95653 0.0677188V6.95647V6.9565H0.0677188C0.02325 7.29809 0 7.64634 0 8C0 8.35372 0.02325 8.70191 0.0677188 9.04347H6.95647H6.9565V15.9323C7.29809 15.9768 7.64628 16 8 16C8.35366 16 8.70191 15.9768 9.04347 15.9323V9.04353V9.0435H15.9323C15.9768 8.70191 16 8.35372 16 8C16 7.64634 15.9768 7.29809 15.9323 6.95653Z" fill="#D80027"/>
<path d="M10.0879 10.086L13.6578 13.6558C13.822 13.4917 13.9786 13.3201 14.128 13.1422L11.0717 10.0859H10.0879V10.086Z" fill="#D80027"/>
<path d="M5.91267 10.088H5.91261L2.34277 13.6579C2.5069 13.822 2.67849 13.9787 2.85637 14.1281L5.91267 11.0717V10.088Z" fill="#D80027"/>
<path d="M5.91317 5.91165V5.91159L2.3433 2.34167C2.17911 2.5058 2.02248 2.67739 1.87305 2.85527L4.92939 5.91162H5.91317V5.91165Z" fill="#D80027"/>
<path d="M10.0879 5.91308L13.6578 2.34314C13.4937 2.17896 13.3221 2.02233 13.1442 1.87292L10.0879 4.92927V5.91308Z" fill="#D80027"/>
</svg>
